#N canvas 1019 207 701 827 10;
#X declare -path .;
#X declare -path rj;
#X obj 98 503 s_playtable;
#X obj 243 525 / 100;
#X obj 156 425 list prepend;
#X obj 243 505 random 20;
#X obj 243 546 + 0.4;
#X obj 275 362 loadbang;
#N canvas 227 330 516 558 env_perc_long 0;
#X obj 198 412 outlet~;
#X obj 13 16 inlet;
#X obj 196 327 / 127;
#X obj 196 366 t a a;
#X obj 157 260 * 127;
#X obj 117 259 t b a;
#X msg 116 280 60;
#X obj 349 21 inlet;
#X text 340 43 volume (0-1);
#X text 59 15 trigger - start envelope;
#X msg 118 153 1;
#X obj 118 131 t b;
#X obj 133 175 *;
#X obj 159 157 loadbang;
#X msg 159 176 1;
#X text 226 160 handle the volume scaling.;
#X text 249 287 setup a midi note (on then off);
#X text 325 355 calculate and send the env;
#X text 41 515 percussive envelope generator - cpm 2012;
#X obj 120 299 makenote 60 4000;
#X obj 198 389 c_adsr 1 30 4000 0 4000;
#X connect 1 0 11 0;
#X connect 2 0 3 0;
#X connect 3 0 20 0;
#X connect 3 1 20 1;
#X connect 4 0 19 1;
#X connect 5 0 6 0;
#X connect 5 1 4 0;
#X connect 6 0 19 0;
#X connect 7 0 12 1;
#X connect 10 0 12 0;
#X connect 11 0 10 0;
#X connect 12 0 5 0;
#X connect 13 0 14 0;
#X connect 14 0 12 1;
#X connect 19 1 2 0;
#X connect 20 0 0 0;
#X restore 133 526 pd env_perc_long;
#X obj 102 525 *~;
#X obj 133 584 outlet~;
#X obj 187 584 outlet~;
#X obj 28 32 inlet;
#X obj 233 40 declare -path .;
#X obj 233 67 declare -path rj;
#X text 82 33 note velocity pairs;
#X obj 28 58 unpack 0 0;
#X obj 89 83 / 127;
#X obj 30 189 mtof;
#X obj 30 233 * 1;
#X obj 94 205 / 1000;
#X obj 93 185 random 15;
#X obj 93 225 + 0.99;
#X obj 28 159 t a b;
#X obj 92 109 s \$0-vel;
#X obj 183 502 r \$0-vel;
#X obj 158 458 t a b b;
#X obj 29 257 list prepend 1;
#X text 139 166 note;
#X text 120 256 gain;
#X msg 275 386 almglocken;
#X obj 373 33 inlet;
#X obj 373 57 unpack s f;
#X text 430 33 pairs of table name and frequency;
#X msg 365 429 sr 44100;
#X obj 30 210 / 525.57;
#X obj 365 404 loadbang;
#X obj 159 561 monopan;
#X connect 0 0 7 0;
#X connect 1 0 4 0;
#X connect 2 0 24 0;
#X connect 3 0 1 0;
#X connect 4 0 35 1;
#X connect 5 0 28 0;
#X connect 6 0 7 1;
#X connect 7 0 35 0;
#X connect 10 0 14 0;
#X connect 14 0 21 0;
#X connect 14 1 15 0;
#X connect 15 0 22 0;
#X connect 16 0 33 0;
#X connect 17 0 25 0;
#X connect 18 0 20 0;
#X connect 19 0 18 0;
#X connect 20 0 17 1;
#X connect 21 0 16 0;
#X connect 21 1 19 0;
#X connect 23 0 6 1;
#X connect 24 0 0 0;
#X connect 24 1 6 0;
#X connect 24 2 3 0;
#X connect 25 0 2 0;
#X connect 28 0 2 1;
#X connect 29 0 30 0;
#X connect 30 0 2 1;
#X connect 30 1 33 1;
#X connect 32 0 0 1;
#X connect 33 0 17 0;
#X connect 34 0 32 0;
#X connect 35 0 8 0;
#X connect 35 1 9 0;
