#N canvas 599 22 687 743 10;
#X declare -path .;
#X declare -path .;
#X declare -path rj;
#X declare -path metaPdLibs;
#X declare -path metaPdLibs/control;
#X declare -path metaPdLibs/fx;
#X declare -path metaPdLibs/instrument;
#X declare -path metaPdLibs/scales;
#X declare -path control;
#X declare -path fx;
#X declare -path instrument;
#X declare -path scales;
#X declare -path .;
#X declare -path rj;
#X declare -path .;
#X declare -path rj;
#X declare -path .;
#X declare -path rj;
#X obj 258 672 dac~;
#X obj 358 8 notein;
#X obj 324 36 s pitch;
#X obj 385 34 s velocity;
#X obj 470 36 s channel;
#N canvas 190 266 185 141 reverb 0;
#X obj 22 10 inlet~;
#X obj 21 68 outlet~;
#X obj 77 69 outlet~;
#X obj 18 40 rev2~ 95 90 6000 60;
#X text 10 110 95 90 6000 60;
#X connect 0 0 3 0;
#X connect 3 0 1 0;
#X connect 3 1 2 0;
#X restore 226 461 pd reverb;
#X obj 178 431 r panTranslation;
#X obj 375 428 r distortlevel;
#N canvas 104 346 889 476 crystal 0;
#X obj 80 16 loadbang;
#X obj 33 16 inlet~;
#X obj 36 327 outlet~;
#X obj 279 30 inlet;
#X obj 312 116 line~;
#X obj 279 52 t b f;
#X msg 279 94 0 500;
#X obj 336 73 list append 50;
#X obj 279 74 delay 50;
#X obj 34 42 *~;
#X obj 430 29 vsl 15 128 0 1 0 0 empty empty empty 0 -9 0 10 -262144
-1 -1 0 1;
#X obj 81 92 f 12;
#X obj 36 298 *~ 0.5;
#X obj 60 115 pitchshift~;
#X obj 35 232 rlop~ 4720 1;
#X text 277 5 control inlet!;
#X obj 93 146 loadbang;
#X obj 54 264 rev2~ 100 95 14400 60;
#X obj 35 65 *~ 0.8;
#X obj 491 157 vline~;
#X obj 509 179 noise~;
#X obj 490 201 *~;
#X obj 491 94 bng 24 250 50 0 empty empty empty 17 7 0 10 -4034 -1
-1;
#X msg 491 121 0.8 10 \, 0 20 10;
#X msg 93 169 500;
#X msg 126 169 0.3;
#X obj 60 191 feedbackdelay 500;
#X connect 0 0 11 0;
#X connect 1 0 9 0;
#X connect 3 0 5 0;
#X connect 4 0 9 1;
#X connect 5 0 8 0;
#X connect 5 1 7 0;
#X connect 6 0 4 0;
#X connect 7 0 4 0;
#X connect 8 0 6 0;
#X connect 9 0 18 0;
#X connect 10 0 7 0;
#X connect 11 0 13 1;
#X connect 12 0 2 0;
#X connect 13 0 26 0;
#X connect 14 0 12 0;
#X connect 14 0 17 0;
#X connect 16 0 24 0;
#X connect 16 0 25 0;
#X connect 17 0 12 0;
#X connect 18 0 13 0;
#X connect 18 0 14 0;
#X connect 19 0 21 0;
#X connect 20 0 21 1;
#X connect 21 0 18 0;
#X connect 22 0 23 0;
#X connect 23 0 19 0;
#X connect 24 0 26 1;
#X connect 25 0 26 2;
#X connect 26 0 14 0;
#X restore 153 457 pd crystal;
#N canvas 721 70 418 494 random_pitch 0;
#X obj 33 419 outlet~;
#X obj 33 31 inlet~;
#X obj 296 30 inlet;
#X obj 33 135 *~;
#X obj 48 113 line~;
#X obj 233 131 * -1;
#X obj 233 155 + 4;
#X obj 233 88 random 80;
#X obj 233 109 / 10;
#X obj 323 154 random 200;
#X obj 296 55 t b b;
#X obj 33 394 *~ 0.8;
#X obj 49 88 list append 1000;
#X obj 32 305 pitchshift~;
#X obj 33 372 feedbackdelay 200;
#X obj 99 330 loadbang;
#X msg 99 351 0.15;
#X floatatom 323 221 5 0 0 0 - - -;
#X obj 233 199 line;
#X floatatom 232 222 5 0 0 0 - - -;
#X obj 233 178 pack 0 1000;
#X obj 323 199 line;
#X obj 323 177 pack 0 1000;
#X text 33 9 signal;
#X text 294 10 volume 0-1;
#X connect 1 0 3 0;
#X connect 2 0 10 0;
#X connect 2 0 12 0;
#X connect 3 0 13 0;
#X connect 4 0 3 1;
#X connect 5 0 6 0;
#X connect 6 0 20 0;
#X connect 7 0 8 0;
#X connect 8 0 5 0;
#X connect 9 0 22 0;
#X connect 10 0 7 0;
#X connect 10 1 9 0;
#X connect 11 0 0 0;
#X connect 12 0 4 0;
#X connect 13 0 14 0;
#X connect 14 0 11 0;
#X connect 15 0 16 0;
#X connect 16 0 14 2;
#X connect 18 0 19 0;
#X connect 18 0 13 1;
#X connect 20 0 18 0;
#X connect 21 0 17 0;
#X connect 21 0 14 1;
#X connect 22 0 21 0;
#X restore 288 464 pd random_pitch;
#X obj 501 130 r singlevel;
#X obj 483 105 r singpitch;
#X obj 518 153 r sing;
#X obj 531 179 r sinPanAngle;
#X obj 558 233 r resetsing;
#N canvas 900 22 762 849 singer 0;
#X obj 172 641 *~;
#X obj 172 725 outlet~;
#X obj 172 700 hip~ 5;
#X obj 179 145 line~;
#X obj 15 -25 inlet;
#X text 63 -25 pitch;
#X obj 151 -24 inlet;
#X text 197 -25 level;
#X obj 483 -28 inlet;
#X obj 256 -25 inlet;
#X text 300 -24 sing "on";
#X obj 379 -25 inlet;
#X obj 586 -26 inlet;
#X text 639 -27 reset;
#X obj 172 671 *~;
#X obj 270 299 line~;
#X obj 269 271 list append 50;
#X obj 376 113 / 100;
#X floatatom 376 89 5 0 0 0 - - -;
#X obj 600 47 loadbang;
#X obj 379 68 * 100;
#X text 518 -28 mod freq;
#X text 368 -4 phase factor;
#N canvas 559 68 450 300 zerotoone 0;
#X obj 85 37 inlet;
#X obj 89 197 outlet;
#X obj 91 66 moses 1;
#X obj 67 122 moses 0;
#X msg 135 106 1;
#X msg 47 160 0;
#X connect 0 0 2 0;
#X connect 2 0 3 0;
#X connect 2 1 4 0;
#X connect 3 0 5 0;
#X connect 3 1 1 0;
#X connect 4 0 1 0;
#X connect 5 0 1 0;
#X restore 159 5 pd zerotoone;
#X obj 190 31 - 0.2;
#X obj 190 57 * 1.5;
#N canvas 559 68 450 300 zerotoone 0;
#X obj 85 37 inlet;
#X obj 89 197 outlet;
#X obj 91 66 moses 1;
#X obj 67 122 moses 0;
#X msg 135 106 1;
#X msg 47 160 0;
#X connect 0 0 2 0;
#X connect 2 0 3 0;
#X connect 2 1 4 0;
#X connect 3 0 5 0;
#X connect 3 1 1 0;
#X connect 4 0 1 0;
#X connect 5 0 1 0;
#X restore 194 81 pd zerotoone;
#X obj 179 121 list append 80;
#X obj 101 417 pluck~;
#X obj 63 252 tgl 15 0 empty empty empty 17 7 0 10 -262144 -1 -1 1
1;
#X obj 62 273 metro 2000;
#X obj 99 357 f 60;
#X obj 63 299 random 25;
#X obj 63 322 + 40;
#X obj 483 56 + 0.95;
#X obj 484 33 * 0.049;
#X obj 617 243 vsl 15 128 -2 2 0 0 empty empty empty 0 -9 0 10 -262144
-1 -1 0 1;
#N canvas 559 68 450 300 minusonetoone 0;
#X obj 85 37 inlet;
#X obj 89 197 outlet;
#X obj 91 66 moses 1;
#X msg 135 106 1;
#X obj 67 122 moses -1;
#X msg 47 160 -1;
#X connect 0 0 2 0;
#X connect 2 0 4 0;
#X connect 2 1 3 0;
#X connect 3 0 1 0;
#X connect 4 0 5 0;
#X connect 4 1 1 0;
#X connect 5 0 1 0;
#X restore 484 6 pd minusonetoone;
#X obj 493 336 + 2200;
#X obj 493 312 * 4600;
#N canvas 559 68 450 300 zerotoone 0;
#X obj 85 37 inlet;
#X obj 89 197 outlet;
#X obj 91 66 moses 1;
#X obj 67 122 moses 0;
#X msg 135 106 1;
#X msg 47 160 0;
#X connect 0 0 2 0;
#X connect 2 0 3 0;
#X connect 2 1 4 0;
#X connect 3 0 5 0;
#X connect 3 1 1 0;
#X connect 4 0 1 0;
#X connect 5 0 1 0;
#X restore 490 283 pd zerotoone;
#X connect 0 0 14 0;
#X connect 2 0 1 0;
#X connect 3 0 0 1;
#X connect 4 0 31 1;
#X connect 6 0 23 0;
#X connect 8 0 37 0;
#X connect 9 0 16 0;
#X connect 9 0 29 0;
#X connect 11 0 20 0;
#X connect 11 0 40 0;
#X connect 14 0 2 0;
#X connect 15 0 14 1;
#X connect 16 0 15 0;
#X connect 18 0 17 0;
#X connect 20 0 18 0;
#X connect 23 0 24 0;
#X connect 24 0 25 0;
#X connect 25 0 26 0;
#X connect 26 0 27 0;
#X connect 27 0 3 0;
#X connect 28 0 0 0;
#X connect 29 0 30 0;
#X connect 30 0 31 0;
#X connect 30 0 32 0;
#X connect 31 0 28 0;
#X connect 32 0 33 0;
#X connect 33 0 30 1;
#X connect 34 0 28 1;
#X connect 35 0 34 0;
#X connect 37 0 35 0;
#X connect 38 0 28 2;
#X connect 39 0 38 0;
#X connect 40 0 39 0;
#X restore 400 306 pd singer;
#N canvas 1121 64 488 330 note_distribute 0;
#X obj 89 26 inlet;
#X obj 153 27 inlet;
#X obj 45 258 outlet;
#X obj 103 50 pack f f;
#X obj 103 85 stripnote;
#X obj 127 257 outlet;
#X obj 244 260 outlet;
#X obj 313 257 outlet;
#X obj 248 106 + 1;
#X floatatom 195 130 5 0 0 0 - - -;
#X msg 245 152 set \$1;
#X obj 245 129 % 4;
#X obj 195 102 t b;
#X obj 84 210 route 0 1 2 3;
#X obj 98 145 pack f f;
#X obj 123 180 list prepend;
#N canvas 326 601 450 300 sel01 0;
#X obj 122 3 inlet;
#X obj 247 31 sel 0;
#X msg 225 58 0;
#X msg 275 57 1;
#X obj 49 133 spigot;
#X obj 240 5 inlet;
#X obj 47 203 outlet;
#X obj 165 105 tgl 15 0 empty empty empty 17 7 0 10 -262144 -1 -1 1
1;
#X connect 0 0 4 0;
#X connect 1 0 2 0;
#X connect 1 1 3 0;
#X connect 2 0 7 0;
#X connect 3 0 7 0;
#X connect 4 0 6 0;
#X connect 5 0 1 0;
#X connect 7 0 4 1;
#X coords 0 -1 1 1 85 25 1 100 100;
#X restore 231 48 pd sel01;
#X obj 331 23 inlet;
#X obj 340 91 loadbang;
#X msg 335 121 1;
#X connect 0 0 3 0;
#X connect 1 0 3 1;
#X connect 3 0 16 0;
#X connect 4 0 14 0;
#X connect 4 1 12 0;
#X connect 4 1 14 1;
#X connect 8 0 11 0;
#X connect 9 0 8 0;
#X connect 9 0 15 1;
#X connect 10 0 9 0;
#X connect 11 0 10 0;
#X connect 12 0 9 0;
#X connect 13 0 2 0;
#X connect 13 1 5 0;
#X connect 13 2 6 0;
#X connect 13 3 7 0;
#X connect 14 0 15 0;
#X connect 15 0 13 0;
#X connect 16 0 4 0;
#X connect 17 0 16 1;
#X connect 18 0 19 0;
#X connect 19 0 16 1;
#X restore 38 240 pd note_distribute;
#X obj 38 214 r pitch;
#X obj 90 214 r velocity;
#N canvas 342 557 893 337 test 0;
#X obj 69 29 bng 150 250 50 0 empty empty empty 17 7 0 10 -258113 -1
-1;
#X floatatom 73 218 5 0 0 0 - - -;
#X obj 139 188 random 128;
#X obj 163 212 / 1.28;
#X floatatom 207 212 5 0 0 0 - - -;
#X obj 207 235 s singlevel;
#X obj 70 237 s pitch;
#X obj 138 235 s velocity;
#X obj 69 3 r testbutton;
#X obj 45 267 s singpitch;
#X obj 315 26 tgl 150 0 sing empty empty 17 7 0 10 -4034 -1 -1 0 1
;
#X obj 502 26 bng 150 250 50 0 resetsing empty empty 17 7 0 10 -4160
-1 -1;
#X obj 732 30 vsl 50 150 0 1 0 0 distortlevel empty empty 0 -9 0 10
-260097 -1 -1 0 1;
#X obj 435 224 hsl 200 30 -1 1 0 0 sinPanAngle empty sinPanAngle -2
-8 0 10 -262144 -1 -1 16900 1;
#X msg 660 214 0.8;
#X obj 662 239 s panTranslation;
#X msg 697 214 1;
#X obj 349 219 bng 15 250 50 0 empty empty empty 17 7 0 10 -262144
-1 -1;
#X obj 319 274 s changesound;
#X obj 71 187 random 100;
#X obj 35 201 + 20;
#X connect 0 0 2 0;
#X connect 0 0 19 0;
#X connect 1 0 6 0;
#X connect 1 0 9 0;
#X connect 2 0 3 0;
#X connect 2 0 7 0;
#X connect 3 0 4 0;
#X connect 4 0 5 0;
#X connect 8 0 0 0;
#X connect 14 0 15 0;
#X connect 16 0 15 0;
#X connect 17 0 18 0;
#X connect 19 0 20 0;
#X connect 20 0 1 0;
#X restore 126 15 pd test;
#X obj 11 39 declare -path .;
#X obj 199 110 loadbang;
#X obj 197 165 + 50;
#X obj 191 234 r phaseFreq;
#X obj 194 186 s phaseFreq;
#X obj 276 88 r changesound;
#X obj 197 141 random 200;
#X obj 539 205 r phaseFreq;
#X obj 275 110 t b;
#X obj 31 276 stringsynth;
#X obj 11 61 declare -path metaPdLibs;
#X obj 12 81 loadMetaPdLibs;
#X obj 107 330 stereovol 98;
#X obj 400 334 stereovol 90;
#X obj 268 573 stereovol 98;
#X obj 259 274 stringsynth;
#X obj 108 276 stringsynth;
#X obj 184 275 stringsynth;
#X connect 1 0 2 0;
#X connect 1 1 3 0;
#X connect 1 2 4 0;
#X connect 5 0 34 0;
#X connect 5 1 34 1;
#X connect 6 0 8 1;
#X connect 7 0 9 1;
#X connect 8 0 34 0;
#X connect 8 0 34 1;
#X connect 9 0 34 0;
#X connect 9 0 34 1;
#X connect 10 0 15 1;
#X connect 11 0 15 0;
#X connect 12 0 15 2;
#X connect 13 0 15 3;
#X connect 14 0 15 5;
#X connect 15 0 33 0;
#X connect 16 0 29 0;
#X connect 16 1 36 0;
#X connect 16 2 37 0;
#X connect 16 3 35 0;
#X connect 17 0 16 0;
#X connect 18 0 16 1;
#X connect 21 0 26 0;
#X connect 22 0 24 0;
#X connect 23 0 29 1;
#X connect 23 0 35 1;
#X connect 23 0 36 1;
#X connect 23 0 37 1;
#X connect 25 0 28 0;
#X connect 26 0 22 0;
#X connect 27 0 15 4;
#X connect 28 0 26 0;
#X connect 29 0 32 0;
#X connect 29 1 32 1;
#X connect 32 0 8 0;
#X connect 32 0 5 0;
#X connect 32 0 34 0;
#X connect 32 1 9 0;
#X connect 32 1 34 1;
#X connect 33 0 9 0;
#X connect 33 0 8 0;
#X connect 33 0 5 0;
#X connect 33 0 34 0;
#X connect 33 0 34 1;
#X connect 34 0 0 0;
#X connect 34 1 0 1;
#X connect 35 0 32 0;
#X connect 35 1 32 1;
#X connect 36 0 32 0;
#X connect 36 1 32 1;
#X connect 37 0 32 0;
#X connect 37 1 32 1;
