#N canvas 877 22 687 743 10;
#X declare -path rj;
#X declare -path .;
#X declare -path .;
#X declare -path rj;
#X declare -path .;
#X declare -path rj;
#X declare -path .;
#X declare -path rj;
#X declare -path .;
#X declare -path rj;
#X obj 258 672 dac~;
#X obj 358 8 notein;
#X obj 324 36 s pitch;
#X obj 385 34 s velocity;
#X obj 470 36 s channel;
#N canvas 270 245 392 301 reverb 0;
#X obj 22 10 inlet~;
#X obj 18 263 outlet~;
#X obj 320 261 outlet~;
#X obj 100 95 loadbang;
#X obj 73 139 e_reverb \$0-reverbBus;
#X msg 100 116 amp 80 \, hall 85 \, freq 6000 \, damp 60 \, dry 0;
#X connect 0 0 4 0;
#X connect 3 0 5 0;
#X connect 4 0 1 0;
#X connect 4 1 2 0;
#X connect 5 0 4 1;
#X restore 226 461 pd reverb;
#X obj 178 431 r panTranslation;
#X obj 375 428 r distortlevel;
#N canvas 0 57 805 425 crystal 0;
#X obj 82 67 e_pitchshift;
#X msg 151 45 pitch 12;
#X obj 194 11 loadbang;
#X obj 30 16 inlet~;
#X obj 27 391 outlet~;
#X obj 546 25 inlet;
#X obj 520 121 line~;
#X obj 546 47 t b f;
#X msg 519 87 0 500;
#X obj 583 85 list append 50;
#X obj 533 67 delay 50;
#X obj 26 304 e_reslop mylop 4720;
#X msg 184 284 q 1;
#X obj 28 334 e_reverb crystal;
#X obj 29 253 *~ 0.5;
#X msg 160 319 amp 100 \, dry 0.5 \, hall 90 \, freq 14400 \, damp
60;
#X obj 75 175 e_fbdelay crystaldel 500;
#X obj 34 42 *~;
#X msg 216 152 dry 0.5 \, feedback 0.15 \, delay 200;
#X obj 26 361 *~ 0.8;
#X connect 0 0 16 0;
#X connect 1 0 0 1;
#X connect 2 0 1 0;
#X connect 2 0 12 0;
#X connect 2 0 15 0;
#X connect 2 0 18 0;
#X connect 3 0 17 0;
#X connect 5 0 7 0;
#X connect 6 0 17 1;
#X connect 7 0 10 0;
#X connect 7 1 9 0;
#X connect 8 0 6 0;
#X connect 9 0 6 0;
#X connect 10 0 8 0;
#X connect 11 0 13 0;
#X connect 12 0 11 1;
#X connect 13 0 19 0;
#X connect 14 0 11 0;
#X connect 15 0 13 1;
#X connect 16 0 11 0;
#X connect 17 0 0 0;
#X connect 17 0 14 0;
#X connect 18 0 16 2;
#X connect 19 0 4 0;
#X restore 153 457 pd crystal;
#N canvas 653 118 502 438 random_pitch 0;
#X obj 16 402 outlet~;
#X obj 19 11 inlet~;
#X obj 419 7 inlet;
#X obj 30 55 *~;
#X obj 374 57 line~;
#X obj 27 206 e_fbdelay rand_del 200;
#X msg 154 137 pitch 3;
#X obj 155 89 loadbang;
#X msg 154 179 dry 0.5 \, feedback 0.15 \, delay 200;
#X obj 253 117 * -1;
#X obj 253 141 + 4;
#X obj 320 135 list prepend pitch;
#X obj 245 57 random 80;
#X obj 247 83 / 10;
#X obj 32 111 e_pitchshift;
#X obj 242 232 random 200;
#X obj 244 268 list prepend delay;
#X obj 282 23 t b b;
#X obj 50 313 *~ 0.8;
#X obj 375 32 list append 1000;
#X connect 1 0 3 0;
#X connect 2 0 17 0;
#X connect 2 0 19 0;
#X connect 3 0 14 0;
#X connect 4 0 3 1;
#X connect 5 0 18 0;
#X connect 6 0 14 1;
#X connect 7 0 6 0;
#X connect 7 0 8 0;
#X connect 8 0 5 2;
#X connect 9 0 10 0;
#X connect 10 0 11 0;
#X connect 11 0 14 1;
#X connect 12 0 13 0;
#X connect 13 0 9 0;
#X connect 14 0 5 0;
#X connect 15 0 16 0;
#X connect 16 0 5 2;
#X connect 17 0 12 0;
#X connect 17 1 15 0;
#X connect 18 0 0 0;
#X connect 19 0 4 0;
#X restore 288 464 pd random_pitch;
#X obj 13 14 declare -path rj;
#X obj 501 130 r singlevel;
#X obj 483 105 r singpitch;
#X obj 518 153 r sing;
#X obj 531 179 r sinPanAngle;
#X obj 558 233 r resetsing;
#N canvas 358 22 762 849 singer 0;
#X obj 16 3 mtof;
#X obj 172 641 *~;
#X obj 172 725 outlet~;
#X obj 172 700 hip~ 5;
#X obj 179 145 line~;
#X obj 15 -25 inlet;
#X text 63 -25 pitch;
#X obj 151 -24 inlet;
#X text 197 -25 level;
#X obj 483 -28 inlet;
#X obj 256 -25 inlet;
#X text 300 -24 sing "on";
#X obj 379 -25 inlet;
#X obj 586 -26 inlet;
#X text 639 -27 reset;
#X obj 172 671 *~;
#X obj 270 299 line~;
#X obj 269 271 list append 50;
#X obj 47 286 phasor~;
#X obj 47 328 +~;
#X obj 47 350 cos~;
#X obj 110 328 *~;
#X obj 110 286 osc~ 0;
#X obj 163 328 line~;
#X obj 163 286 pack 0 50;
#X obj 376 113 / 100;
#X floatatom 376 89 5 0 0 0 - - -;
#X floatatom 47 261 5 0 0 0 - - -;
#X obj 600 47 loadbang;
#X obj 379 68 * 100;
#X text 518 -28 mod freq;
#X text 368 -4 phase factor;
#X obj 165 263 + 0.1;
#N canvas 559 68 450 300 zerotoone 0;
#X obj 85 37 inlet;
#X obj 89 197 outlet;
#X obj 91 66 moses 1;
#X obj 67 122 moses 0;
#X msg 135 106 1;
#X msg 47 160 0;
#X connect 0 0 2 0;
#X connect 2 0 3 0;
#X connect 2 1 4 0;
#X connect 3 0 5 0;
#X connect 3 1 1 0;
#X connect 4 0 1 0;
#X connect 5 0 1 0;
#X restore 159 5 pd zerotoone;
#X obj 190 31 - 0.2;
#X obj 190 57 * 1.5;
#N canvas 559 68 450 300 zerotoone 0;
#X obj 85 37 inlet;
#X obj 89 197 outlet;
#X obj 91 66 moses 1;
#X obj 67 122 moses 0;
#X msg 135 106 1;
#X msg 47 160 0;
#X connect 0 0 2 0;
#X connect 2 0 3 0;
#X connect 2 1 4 0;
#X connect 3 0 5 0;
#X connect 3 1 1 0;
#X connect 4 0 1 0;
#X connect 5 0 1 0;
#X restore 194 81 pd zerotoone;
#X obj 179 121 list append 80;
#X obj 106 240 pack 0 50;
#X obj 109 263 line~;
#X connect 0 0 27 0;
#X connect 1 0 15 0;
#X connect 3 0 2 0;
#X connect 4 0 1 1;
#X connect 5 0 0 0;
#X connect 7 0 33 0;
#X connect 9 0 38 0;
#X connect 10 0 17 0;
#X connect 12 0 29 0;
#X connect 15 0 3 0;
#X connect 16 0 15 1;
#X connect 17 0 16 0;
#X connect 18 0 19 0;
#X connect 19 0 20 0;
#X connect 20 0 1 0;
#X connect 21 0 19 1;
#X connect 22 0 21 0;
#X connect 23 0 21 1;
#X connect 24 0 23 0;
#X connect 25 0 32 0;
#X connect 26 0 25 0;
#X connect 27 0 18 0;
#X connect 29 0 26 0;
#X connect 32 0 24 0;
#X connect 33 0 34 0;
#X connect 34 0 35 0;
#X connect 35 0 36 0;
#X connect 36 0 37 0;
#X connect 37 0 4 0;
#X connect 38 0 39 0;
#X connect 39 0 22 0;
#X restore 400 306 pd singer;
#N canvas 1121 64 488 330 note_distribute 0;
#X obj 89 26 inlet;
#X obj 153 27 inlet;
#X obj 45 258 outlet;
#X obj 103 50 pack f f;
#X obj 103 85 stripnote;
#X obj 127 257 outlet;
#X obj 244 260 outlet;
#X obj 313 257 outlet;
#X obj 248 106 + 1;
#X floatatom 195 130 5 0 0 0 - - -;
#X msg 245 152 set \$1;
#X obj 245 129 % 4;
#X obj 195 102 t b;
#X obj 84 210 route 0 1 2 3;
#X obj 98 145 pack f f;
#X obj 123 180 list prepend;
#N canvas 326 601 450 300 sel01 0;
#X obj 122 3 inlet;
#X obj 247 31 sel 0;
#X msg 225 58 0;
#X msg 275 57 1;
#X obj 49 133 spigot;
#X obj 240 5 inlet;
#X obj 47 203 outlet;
#X obj 165 105 tgl 15 0 empty empty empty 17 7 0 10 -262144 -1 -1 1
1;
#X connect 0 0 4 0;
#X connect 1 0 2 0;
#X connect 1 1 3 0;
#X connect 2 0 7 0;
#X connect 3 0 7 0;
#X connect 4 0 6 0;
#X connect 5 0 1 0;
#X connect 7 0 4 1;
#X coords 0 -1 1 1 85 25 1 100 100;
#X restore 231 48 pd sel01;
#X obj 331 23 inlet;
#X obj 340 91 loadbang;
#X msg 335 121 1;
#X connect 0 0 3 0;
#X connect 1 0 3 1;
#X connect 3 0 16 0;
#X connect 4 0 14 0;
#X connect 4 1 12 0;
#X connect 4 1 14 1;
#X connect 8 0 11 0;
#X connect 9 0 8 0;
#X connect 9 0 15 1;
#X connect 10 0 9 0;
#X connect 11 0 10 0;
#X connect 12 0 9 0;
#X connect 13 0 2 0;
#X connect 13 1 5 0;
#X connect 13 2 6 0;
#X connect 13 3 7 0;
#X connect 14 0 15 0;
#X connect 15 0 13 0;
#X connect 16 0 4 0;
#X connect 17 0 16 1;
#X connect 18 0 19 0;
#X connect 19 0 16 1;
#X restore 38 240 pd note_distribute;
#X obj 38 214 r pitch;
#X obj 90 214 r velocity;
#N canvas 891 581 893 337 test 0;
#X obj 69 29 bng 150 250 50 0 empty empty empty 17 7 0 10 -258113 -1
-1;
#X obj 71 187 random 128;
#X floatatom 70 208 5 0 0 0 - - -;
#X obj 139 188 random 128;
#X obj 163 212 / 1.28;
#X floatatom 207 212 5 0 0 0 - - -;
#X obj 207 235 s singlevel;
#X obj 70 237 s pitch;
#X obj 138 235 s velocity;
#X obj 69 3 r testbutton;
#X obj 45 267 s singpitch;
#X obj 315 26 tgl 150 0 sing empty empty 17 7 0 10 -4034 -1 -1 0 1
;
#X obj 513 27 bng 150 250 50 0 resetsing empty empty 17 7 0 10 -4160
-1 -1;
#X obj 730 28 vsl 50 150 0 1 0 0 distortlevel empty empty 0 -9 0 10
-260097 -1 -1 0 1;
#X obj 435 224 hsl 200 30 -1 1 0 0 sinPanAngle empty sinPanAngle -2
-8 0 10 -262144 -1 -1 0 1;
#X msg 660 214 0.8;
#X obj 662 239 s panTranslation;
#X msg 697 214 1;
#X obj 349 219 bng 15 250 50 0 empty empty empty 17 7 0 10 -262144
-1 -1;
#X obj 319 274 s changesound;
#X connect 0 0 1 0;
#X connect 0 0 3 0;
#X connect 1 0 2 0;
#X connect 2 0 7 0;
#X connect 2 0 10 0;
#X connect 3 0 4 0;
#X connect 3 0 8 0;
#X connect 4 0 5 0;
#X connect 5 0 6 0;
#X connect 9 0 0 0;
#X connect 15 0 16 0;
#X connect 17 0 16 0;
#X connect 18 0 19 0;
#X restore 126 15 pd test;
#X obj 88 41 declare -path .;
#X obj 182 99 loadbang;
#X obj 197 165 + 50;
#X obj 273 141 random 900;
#X obj 273 165 + 50;
#X obj 191 234 r phaseFreq;
#X obj 194 186 s phaseFreq;
#X obj 271 185 s phaseFact;
#X obj 317 89 r changesound;
#X obj 197 141 random 200;
#X obj 539 205 r phaseFreq;
#X obj 275 110 t b;
#X obj 5 278 phasesynth;
#X obj 245 498 g_vol2 98;
#X obj 400 334 g_vol 90;
#X obj 107 330 g_vol2 98;
#X obj 216 276 phasesynth;
#X obj 78 277 phasesynth;
#X obj 147 277 phasesynth;
#X connect 1 0 2 0;
#X connect 1 1 3 0;
#X connect 1 2 4 0;
#X connect 5 0 34 0;
#X connect 5 1 34 1;
#X connect 6 0 8 1;
#X connect 7 0 9 1;
#X connect 8 0 34 0;
#X connect 8 0 34 1;
#X connect 9 0 34 0;
#X connect 9 0 34 1;
#X connect 11 0 16 1;
#X connect 12 0 16 0;
#X connect 13 0 16 2;
#X connect 14 0 16 3;
#X connect 15 0 16 5;
#X connect 16 0 35 0;
#X connect 17 0 33 0;
#X connect 17 1 38 0;
#X connect 17 2 39 0;
#X connect 17 3 37 0;
#X connect 18 0 17 0;
#X connect 19 0 17 1;
#X connect 22 0 24 0;
#X connect 22 0 30 0;
#X connect 23 0 27 0;
#X connect 24 0 25 0;
#X connect 25 0 28 0;
#X connect 26 0 33 1;
#X connect 26 0 37 1;
#X connect 26 0 38 1;
#X connect 26 0 39 1;
#X connect 29 0 32 0;
#X connect 30 0 23 0;
#X connect 31 0 16 4;
#X connect 32 0 24 0;
#X connect 32 0 30 0;
#X connect 33 0 36 0;
#X connect 33 1 36 1;
#X connect 34 0 0 0;
#X connect 34 1 0 1;
#X connect 35 0 9 0;
#X connect 35 0 8 0;
#X connect 35 0 5 0;
#X connect 35 0 34 0;
#X connect 35 0 34 1;
#X connect 36 0 8 0;
#X connect 36 0 5 0;
#X connect 36 0 34 0;
#X connect 36 1 9 0;
#X connect 36 1 34 1;
#X connect 37 0 36 0;
#X connect 37 1 36 1;
#X connect 38 0 36 0;
#X connect 38 1 36 1;
#X connect 39 0 36 0;
#X connect 39 1 36 1;
