#N canvas 78 137 1466 813 10;
#X declare -path samples;
#X declare -path metaPdLibs;
#X declare -path metaPdLibs/control;
#X declare -path metaPdLibs/fx;
#X declare -path metaPdLibs/scales;
#X declare -path metaPdLibs/instruments;
#X declare -path .;
#X declare -path rj;
#X declare -path .;
#X declare -path rj;
#X declare -path .;
#X declare -path rj;
#X declare -path .;
#X declare -path rj;
#X obj 211 14 notein;
#N canvas 1121 64 488 330 note_distribute 0;
#X obj 89 26 inlet;
#X obj 153 27 inlet;
#X obj 45 258 outlet;
#X obj 103 50 pack f f;
#X obj 103 85 stripnote;
#X obj 127 257 outlet;
#X obj 244 260 outlet;
#X obj 313 257 outlet;
#X obj 248 106 + 1;
#X floatatom 195 130 5 0 0 0 - - -, f 5;
#X msg 245 152 set \$1;
#X obj 245 129 % 4;
#X obj 195 102 t b;
#X obj 84 210 route 0 1 2 3;
#X obj 98 145 pack f f;
#X obj 123 180 list prepend;
#N canvas 326 601 450 300 sel01 0;
#X obj 122 3 inlet;
#X obj 247 31 sel 0;
#X msg 225 58 0;
#X msg 275 57 1;
#X obj 49 133 spigot;
#X obj 240 5 inlet;
#X obj 47 203 outlet;
#X obj 165 105 tgl 15 0 empty empty empty 17 7 0 10 -262144 -1 -1 1
1;
#X connect 0 0 4 0;
#X connect 1 0 2 0;
#X connect 1 1 3 0;
#X connect 2 0 7 0;
#X connect 3 0 7 0;
#X connect 4 0 6 0;
#X connect 5 0 1 0;
#X connect 7 0 4 1;
#X coords 0 -1 1 1 85 25 1 100 100;
#X restore 231 48 pd sel01;
#X obj 331 23 inlet;
#X obj 340 91 loadbang;
#X msg 335 121 1;
#X connect 0 0 3 0;
#X connect 1 0 3 1;
#X connect 3 0 16 0;
#X connect 4 0 14 0;
#X connect 4 1 12 0;
#X connect 4 1 14 1;
#X connect 8 0 11 0;
#X connect 9 0 8 0;
#X connect 9 0 15 1;
#X connect 10 0 9 0;
#X connect 11 0 10 0;
#X connect 12 0 9 0;
#X connect 13 0 2 0;
#X connect 13 1 5 0;
#X connect 13 2 6 0;
#X connect 13 3 7 0;
#X connect 14 0 15 0;
#X connect 15 0 13 0;
#X connect 16 0 4 0;
#X connect 17 0 16 1;
#X connect 18 0 19 0;
#X connect 19 0 16 1;
#X restore 28 230 pd note_distribute;
#X obj 177 42 s pitch;
#X obj 238 40 s velocity;
#X obj 323 42 s channel;
#X obj 28 204 r pitch;
#X obj 80 204 r velocity;
#X obj 315 779 dac~;
#N canvas 201 337 893 337 test 0;
#X obj 69 29 bng 150 250 50 0 empty empty TEST_NOTES 17 7 0 10 -258113
-1 -1;
#X obj 71 187 random 128;
#X floatatom 70 208 5 0 0 0 - - -, f 5;
#X floatatom 207 212 5 0 0 0 - - -, f 5;
#X obj 207 235 s singlevel;
#X obj 70 237 s pitch;
#X obj 138 235 s velocity;
#X obj 69 3 r testbutton;
#X obj 45 267 s singpitch;
#X obj 315 26 tgl 150 0 sing empty Sing_ON_OFF 17 7 0 10 -4034 -1 -1
0 1;
#X obj 513 27 bng 150 250 50 0 resetsing empty Reset_Sing 17 7 0 10
-4160 -1 -1;
#X obj 730 28 vsl 50 150 0 1 0 0 distortlevel empty DISTORT_LEVEL 0
-9 0 10 -260097 -1 -1 0 1;
#X obj 435 224 hsl 200 30 -1 1 0 0 sinPanAngle empty wobble -2 -8 0
10 -262144 -1 -1 0 1;
#X msg 660 214 0.8;
#X obj 662 239 s panTranslation;
#X msg 697 214 1;
#X obj 218 189 f 127;
#X connect 0 0 1 0;
#X connect 0 0 16 0;
#X connect 1 0 2 0;
#X connect 2 0 5 0;
#X connect 2 0 8 0;
#X connect 3 0 4 0;
#X connect 7 0 0 0;
#X connect 13 0 14 0;
#X connect 15 0 14 0;
#X connect 16 0 3 0;
#X connect 16 0 6 0;
#X restore 121 14 pd test;
#X msg 1037 270 marimba 264;
#X obj 157 226 r sampleNameFreq;
#X msg 1117 269 xylo 2116.9;
#X obj -45 41 declare -path samples;
#N canvas 321 232 1133 683 soundfiles 0;
#X obj 570 443 loadbang;
#X obj 570 494 soundfiler;
#X obj 388 56 table bowl;
#X obj 157 55 table crotale;
#X obj 319 56 table gong;
#X obj 460 57 table marimba;
#X obj 246 55 table xylo;
#X obj 438 148 loadbang;
#X obj 438 190 soundfiler;
#X obj 550 58 table almglocken;
#X obj 261 329 s samplesread;
#X obj 566 252 soundfiler;
#X obj 729 353 soundfiler;
#X obj 648 304 soundfiler;
#X obj 653 428 soundfiler;
#X obj 566 206 loadbang;
#X obj 648 259 loadbang;
#X obj 729 309 loadbang;
#X obj 653 377 loadbang;
#X msg 566 227 read -resize gong.wav gong;
#X msg 438 170 read -resize almglockenC.wav almglocken;
#X msg 648 281 read -resize crotale.wav crotale;
#X msg 730 331 read -resize marimba.wav marimba;
#X msg 653 404 read -resize xylo.wav xylo;
#X msg 570 468 read -resize bowl.wav bowl;
#X connect 0 0 24 0;
#X connect 1 0 10 0;
#X connect 7 0 20 0;
#X connect 8 0 10 0;
#X connect 11 0 10 0;
#X connect 12 0 10 0;
#X connect 13 0 10 0;
#X connect 14 0 10 0;
#X connect 15 0 19 0;
#X connect 16 0 21 0;
#X connect 17 0 22 0;
#X connect 18 0 23 0;
#X connect 19 0 11 0;
#X connect 20 0 8 0;
#X connect 21 0 13 0;
#X connect 22 0 12 0;
#X connect 23 0 14 0;
#X connect 24 0 1 0;
#X restore -45 67 pd soundfiles;
#X obj -140 63 r samplesread;
#N canvas 100 64 900 882 scrape 0;
#X obj -22 784 *~;
#X obj -7 753 line~;
#X obj -7 721 list append 50;
#X obj -24 833 outlet~;
#X obj -555 23 inlet;
#X text -507 23 pitch;
#X obj -419 24 inlet;
#X text -373 23 level;
#X obj -87 20 inlet;
#X text -52 20 sample;
#X obj -314 23 inlet;
#X text -270 24 sing "on";
#X obj -219 609 s_loopsmooth almglocken;
#X obj -314 71 tgl 15 0 empty empty empty 17 7 0 10 -262144 -1 -1 0
1;
#X obj -12 217 random 30;
#X obj -13 243 + 25;
#X obj -129 221 random 40;
#X obj -130 246 + 10;
#X obj 155 224 random 100;
#X obj 155 247 + 1;
#X obj 46 98 loadbang;
#X obj -152 124 select 0;
#X floatatom -394 268 5 0 0 0 - - -, f 5;
#X obj -128 156 t b b b b;
#X obj -325 268 list prepend transposition;
#X obj -131 269 list prepend dur;
#X obj -13 268 list prepend loopstart;
#X obj 156 270 list prepend chunk-size;
#X msg -178 182 0;
#X obj -366 175 t b;
#X obj -324 242 + 0;
#X obj -294 204 * 0.25;
#X floatatom -451 165 5 0 0 0 - - -, f 5;
#X obj -508 141 unpack s f;
#X msg -536 254 table \$1;
#X msg 70 505 sr 44100;
#X obj -451 190 ftom;
#X floatatom -451 219 5 0 0 0 - - -, f 5;
#X obj -380 204 - 72.07;
#X obj 70 480 loadbang;
#X obj -314 48 t a a;
#X obj -191 23 inlet;
#X text -151 21 bend;
#X obj 16 22 inlet;
#X text 69 21 reset;
#X obj 76 831 outlet;
#X text 124 833 volume;
#X obj 15 651 moses 1;
#X msg 48 679 1;
#X connect 0 0 3 0;
#X connect 1 0 0 1;
#X connect 2 0 1 0;
#X connect 4 0 38 0;
#X connect 6 0 47 0;
#X connect 6 0 45 0;
#X connect 8 0 33 0;
#X connect 10 0 40 0;
#X connect 12 0 0 0;
#X connect 13 0 12 0;
#X connect 14 0 15 0;
#X connect 15 0 26 0;
#X connect 16 0 17 0;
#X connect 17 0 25 0;
#X connect 18 0 19 0;
#X connect 19 0 27 0;
#X connect 20 0 23 0;
#X connect 21 0 23 0;
#X connect 23 0 16 0;
#X connect 23 1 14 0;
#X connect 23 2 18 0;
#X connect 23 3 28 0;
#X connect 24 0 12 1;
#X connect 25 0 12 1;
#X connect 26 0 12 1;
#X connect 27 0 12 1;
#X connect 28 0 31 0;
#X connect 29 0 38 0;
#X connect 30 0 24 0;
#X connect 30 0 22 0;
#X connect 31 0 30 1;
#X connect 32 0 36 0;
#X connect 33 0 34 0;
#X connect 33 1 32 0;
#X connect 34 0 12 1;
#X connect 35 0 12 1;
#X connect 36 0 37 0;
#X connect 36 0 38 1;
#X connect 38 0 30 0;
#X connect 39 0 35 0;
#X connect 40 0 13 0;
#X connect 40 1 21 0;
#X connect 41 0 29 0;
#X connect 41 0 31 0;
#X connect 43 0 23 0;
#X connect 47 0 2 0;
#X connect 47 1 48 0;
#X connect 48 0 2 0;
#X restore 489 303 pd scrape;
#X obj 498 148 r singlevel;
#X obj 480 123 r singpitch;
#X obj 515 171 r sing;
#X obj 543 222 r sampleNameFreq;
#X obj 528 197 r sinPanAngle;
#X obj 555 251 r resetsing;
#X msg 661 271 almglocken 525.57;
#X floatatom 565 305 5 0 0 0 - - -, f 5;
#X floatatom -138 87 5 0 0 0 - - singvolume, f 5;
#X obj 823 89 r changesound;
#X obj -150 14 declare -path metaPdLibs;
#X obj -147 36 loadMetaPdLibs;
#X obj 91 631 stereovol 98;
#X obj 596 617 r distortlevel;
#N canvas 973 289 502 438 random_pitch 0;
#X obj 16 402 outlet~;
#X obj 19 11 inlet~;
#X obj 419 7 inlet;
#X obj 26 115 *~;
#X obj 41 93 line~;
#X obj 226 111 * -1;
#X obj 226 135 + 4;
#X obj 226 68 random 80;
#X obj 226 89 / 10;
#X obj 316 134 random 200;
#X obj 289 35 t b b;
#X obj 26 374 *~ 0.8;
#X obj 42 68 list append 1000;
#X obj 25 285 pitchshift~;
#X obj 26 352 feedbackdelay 200;
#X obj 92 310 loadbang;
#X msg 92 331 0.15;
#X floatatom 316 201 5 0 0 0 - - -, f 5;
#X obj 226 179 line;
#X floatatom 225 202 5 0 0 0 - - -, f 5;
#X obj 226 158 pack 0 1000;
#X obj 316 179 line;
#X obj 316 157 pack 0 1000;
#X connect 1 0 3 0;
#X connect 2 0 10 0;
#X connect 2 0 12 0;
#X connect 3 0 13 0;
#X connect 4 0 3 1;
#X connect 5 0 6 0;
#X connect 6 0 20 0;
#X connect 7 0 8 0;
#X connect 8 0 5 0;
#X connect 9 0 22 0;
#X connect 10 0 7 0;
#X connect 10 1 9 0;
#X connect 11 0 0 0;
#X connect 12 0 4 0;
#X connect 13 0 14 0;
#X connect 14 0 11 0;
#X connect 15 0 16 0;
#X connect 16 0 14 2;
#X connect 18 0 19 0;
#X connect 18 0 13 1;
#X connect 20 0 18 0;
#X connect 21 0 17 0;
#X connect 21 0 14 1;
#X connect 22 0 21 0;
#X restore 554 641 pd random_pitch;
#X obj 424 640 rev2~ 95 90 6000 60;
#X obj 342 614 r panTranslation;
#N canvas 321 246 805 425 crystal 0;
#X obj 90 26 loadbang;
#X obj 43 26 inlet~;
#X obj 46 337 outlet~;
#X obj 289 40 inlet;
#X obj 322 126 line~;
#X obj 289 62 t b f;
#X msg 289 104 0 500;
#X obj 346 83 list append 50;
#X obj 289 84 delay 50;
#X obj 44 52 *~;
#X obj 440 39 vsl 15 128 0 1 0 0 empty empty empty 0 -9 0 10 -262144
-1 -1 0 1;
#X obj 91 102 f 12;
#X obj 46 308 *~ 0.5;
#X obj 70 125 pitchshift~;
#X obj 45 242 rlop~ 4720 1;
#X text 287 15 control inlet!;
#X obj 103 156 loadbang;
#X obj 64 274 rev2~ 100 95 14400 60;
#X obj 45 75 *~ 0.8;
#X obj 501 167 vline~;
#X obj 519 189 noise~;
#X obj 500 211 *~;
#X obj 501 104 bng 24 250 50 0 empty empty empty 17 7 0 10 -4034 -1
-1;
#X msg 501 131 0.8 10 \, 0 20 10;
#X msg 103 179 500;
#X msg 136 179 0.3;
#X obj 70 201 feedbackdelay 500;
#X connect 0 0 11 0;
#X connect 1 0 9 0;
#X connect 3 0 5 0;
#X connect 4 0 9 1;
#X connect 5 0 8 0;
#X connect 5 1 7 0;
#X connect 6 0 4 0;
#X connect 7 0 4 0;
#X connect 8 0 6 0;
#X connect 9 0 18 0;
#X connect 10 0 7 0;
#X connect 11 0 13 1;
#X connect 12 0 2 0;
#X connect 13 0 26 0;
#X connect 14 0 12 0;
#X connect 14 0 17 0;
#X connect 16 0 24 0;
#X connect 16 0 25 0;
#X connect 17 0 12 0;
#X connect 18 0 13 0;
#X connect 18 0 14 0;
#X connect 19 0 21 0;
#X connect 20 0 21 1;
#X connect 21 0 18 0;
#X connect 22 0 23 0;
#X connect 23 0 19 0;
#X connect 24 0 26 1;
#X connect 25 0 26 2;
#X connect 26 0 14 0;
#X restore 317 640 pd crystal;
#X obj -62 274 percsampler;
#X obj 68 267 percsampler;
#X obj 155 267 percsampler;
#X obj 236 264 percsampler;
#X obj 394 40 print SCRAPE_SAMPLE;
#X obj 396 16 r sampleNameFreq;
#X obj 557 349 print SING_VOLUME;
#X msg 958 271 bowl 705.52;
#X msg 777 271 gong 179.88;
#X obj 916 312 s sampleNameFreq;
#X msg 855 271 crotale 1058.39;
#X obj 944 88 r selectsound;
#X obj 824 119 random 5;
#X text 1126 290 xylo sucks;
#X text 626 33 default sound is bowls (almglocken);
#X obj 912 169 select 2 3 4 5 6;
#X obj 831 143 + 2;
#X obj 954 112 print SOUND_CHOICE;
#X obj 448 591 r reverbvolume;
#X obj 427 685 stereovol 98;
#X obj 439 543 stereovol 100;
#X obj 452 495 r processeffects;
#X obj 290 739 stereovol 100;
#X text -16 641 synth bus;
#X text 724 607 fx bus;
#X text 206 754 master bus;
#X obj 395 741 r mastervolume;
#X obj 387 761 floatVolToDb;
#X obj 448 614 floatVolToDb;
#X obj 452 519 floatVolToDb;
#X obj 891 657 vu 15 120 empty empty -1 -8 0 10 -66577 -1 1 0;
#X obj 890 631 - 100;
#X obj 890 609 env~;
#X obj 81 455 stereovol 97;
#X obj 384 414 stereovol 97;
#X connect 0 0 2 0;
#X connect 0 1 3 0;
#X connect 0 2 4 0;
#X connect 1 0 34 0;
#X connect 1 1 35 0;
#X connect 1 2 36 0;
#X connect 1 3 37 0;
#X connect 5 0 1 0;
#X connect 6 0 1 1;
#X connect 9 0 43 0;
#X connect 10 0 34 3;
#X connect 10 0 36 1;
#X connect 10 0 35 3;
#X connect 10 0 36 3;
#X connect 10 0 37 3;
#X connect 14 0 24 0;
#X connect 15 0 68 0;
#X connect 15 1 23 0;
#X connect 16 0 15 1;
#X connect 17 0 15 0;
#X connect 18 0 15 2;
#X connect 19 0 15 4;
#X connect 20 0 15 3;
#X connect 21 0 15 5;
#X connect 22 0 43 0;
#X connect 25 0 46 0;
#X connect 28 0 56 0;
#X connect 28 1 56 1;
#X connect 29 0 30 1;
#X connect 30 0 53 1;
#X connect 30 0 53 0;
#X connect 31 0 53 0;
#X connect 31 1 53 1;
#X connect 32 0 33 1;
#X connect 33 0 53 1;
#X connect 33 0 53 0;
#X connect 34 0 67 0;
#X connect 34 1 67 1;
#X connect 35 0 67 0;
#X connect 35 1 67 1;
#X connect 36 0 67 0;
#X connect 36 1 67 1;
#X connect 37 0 67 0;
#X connect 37 1 67 1;
#X connect 39 0 38 0;
#X connect 41 0 43 0;
#X connect 42 0 43 0;
#X connect 44 0 43 0;
#X connect 45 0 49 0;
#X connect 45 0 51 0;
#X connect 46 0 50 0;
#X connect 49 0 22 0;
#X connect 49 1 42 0;
#X connect 49 2 44 0;
#X connect 49 3 41 0;
#X connect 49 4 9 0;
#X connect 50 0 49 0;
#X connect 50 0 51 0;
#X connect 52 0 62 0;
#X connect 53 0 56 0;
#X connect 53 1 56 1;
#X connect 54 0 33 0;
#X connect 54 0 31 0;
#X connect 54 0 30 0;
#X connect 55 0 63 0;
#X connect 56 0 7 0;
#X connect 56 1 7 1;
#X connect 56 1 66 0;
#X connect 60 0 61 0;
#X connect 61 0 56 2;
#X connect 62 0 31 1;
#X connect 63 0 54 2;
#X connect 65 0 64 0;
#X connect 66 0 65 0;
#X connect 67 0 28 0;
#X connect 67 0 54 0;
#X connect 67 1 28 1;
#X connect 68 0 28 0;
#X connect 68 0 28 1;
#X connect 68 0 54 0;
