#N canvas 436 114 701 827 10;
#X declare -path .;
#X declare -path rj;
#X obj 361 648 / 100;
#X obj 361 628 random 20;
#X obj 361 669 + 0.4;
#X obj 222 648 *~;
#X obj 253 707 outlet~;
#X obj 307 707 outlet~;
#X obj 28 32 inlet;
#X obj 233 40 declare -path .;
#X obj 233 67 declare -path rj;
#X text 82 33 note velocity pairs;
#X obj 28 58 unpack 0 0;
#X obj 89 83 / 127;
#X obj 30 189 mtof;
#X obj 30 233 * 1;
#X obj 94 205 / 1000;
#X obj 93 185 random 15;
#X obj 93 225 + 0.99;
#X obj 28 159 t a b;
#X obj 92 109 s \$0-vel;
#X obj 214 375 t a b b;
#X obj 373 33 inlet;
#X obj 276 503 *~;
#X obj 276 461 osc~ 0;
#X obj 329 503 line~;
#X obj 329 461 pack 0 50;
#X obj 329 438 / 100;
#X floatatom 329 414 5 0 0 0 - - -;
#X floatatom 276 435 5 0 0 0 - - -;
#X obj 503 35 inlet;
#X obj 161 108 s \$0-index;
#X obj 310 389 r \$0-index;
#N canvas 442 288 794 645 envperc 0;
#X obj 102 440 outlet~;
#X obj 15 48 inlet;
#X obj 185 48 inlet;
#X text 183 24 volume (0-1);
#X text 15 23 trigger - start envelope;
#X text 143 387 handle the volume scaling.;
#X obj 102 309 vline~;
#X obj 102 383 *~;
#X obj 293 49 inlet;
#X obj 371 49 inlet;
#X text 291 24 attack;
#X text 372 24 release;
#X text 41 515 percussive envelope generator - cpm 2014;
#X obj 101 239 f;
#X obj 101 214 t b;
#X obj 513 33 loadbang;
#X msg 496 66 25;
#X msg 556 64 4000;
#X msg 615 64 1;
#X text 583 35 defaults;
#X text 298 214 doesn't work right now;
#X msg 102 282 1 25 \, 0 \$1 25;
#X obj 360 73 s \$0-envrel;
#X obj 281 73 s \$0-envatt;
#X obj 181 71 s \$0-envvol;
#X obj 205 212 r \$0-envatt;
#X obj 127 214 r \$0-envrel;
#X obj 117 353 r \$0-envvol;
#X obj 470 90 s \$0-envatt;
#X obj 546 91 s \$0-envrel;
#X obj 623 93 s \$0-envvol;
#X obj 479 38 bng 15 250 50 0 empty empty empty 17 7 0 10 -262144 -1
-1;
#X floatatom 212 122 5 0 0 0 - - -;
#X floatatom 296 123 5 0 0 0 - - -;
#X floatatom 364 123 5 0 0 0 - - -;
#X connect 1 0 14 0;
#X connect 2 0 24 0;
#X connect 2 0 32 0;
#X connect 6 0 7 0;
#X connect 7 0 0 0;
#X connect 8 0 23 0;
#X connect 8 0 33 0;
#X connect 9 0 22 0;
#X connect 9 0 34 0;
#X connect 13 0 21 0;
#X connect 14 0 13 0;
#X connect 15 0 16 0;
#X connect 15 0 17 0;
#X connect 15 0 18 0;
#X connect 16 0 28 0;
#X connect 17 0 29 0;
#X connect 18 0 30 0;
#X connect 21 0 6 0;
#X connect 26 0 13 1;
#X connect 27 0 7 1;
#X connect 31 0 15 0;
#X restore 256 601 pd envperc;
#X obj 287 531 r \$0-vel;
#X obj 318 554 r \$0-att;
#X obj 349 578 r \$0-rel;
#X obj 109 386 bng 15 250 50 0 empty empty empty 17 7 0 10 -262144
-1 -1;
#X obj 462 189 s \$0-rel;
#X obj 583 95 loadbang;
#X msg 583 122 200;
#X obj 77 512 pluck~;
#X msg 92 467 0.999;
#X obj 89 437 loadbang;
#N canvas 534 124 497 393 pan 1;
#X text 189 156 * ~M_PI/2;
#X obj 116 148 * 1.5708;
#X obj 116 33 inlet;
#X obj 37 35 inlet~;
#X obj 38 324 outlet~;
#X obj 129 328 outlet~;
#X obj 57 180 cos;
#X obj 146 182 sin;
#X msg 167 105 0.5;
#X obj 129 297 *~;
#X obj 38 293 *~;
#X obj 146 266 line~;
#X obj 146 240 pack 0 10;
#X obj 57 269 line~;
#X obj 57 243 pack 0 10;
#X obj 167 81 loadbang;
#X connect 1 0 6 0;
#X connect 1 0 7 0;
#X connect 2 0 1 0;
#X connect 3 0 9 0;
#X connect 3 0 10 0;
#X connect 6 0 14 0;
#X connect 7 0 12 0;
#X connect 8 0 1 0;
#X connect 9 0 5 0;
#X connect 10 0 4 0;
#X connect 11 0 9 1;
#X connect 12 0 11 0;
#X connect 13 0 10 1;
#X connect 14 0 13 0;
#X connect 15 0 8 0;
#X restore 268 679 pd pan;
#X connect 0 0 2 0;
#X connect 1 0 0 0;
#X connect 2 0 42 1;
#X connect 3 0 42 0;
#X connect 6 0 10 0;
#X connect 10 0 17 0;
#X connect 10 1 11 0;
#X connect 11 0 18 0;
#X connect 11 0 29 0;
#X connect 12 0 13 0;
#X connect 13 0 19 0;
#X connect 14 0 16 0;
#X connect 15 0 14 0;
#X connect 16 0 13 1;
#X connect 17 0 12 0;
#X connect 17 0 39 0;
#X connect 17 1 15 0;
#X connect 19 1 1 0;
#X connect 19 2 31 0;
#X connect 19 2 35 0;
#X connect 20 0 27 0;
#X connect 22 0 21 0;
#X connect 23 0 21 1;
#X connect 24 0 23 0;
#X connect 25 0 24 0;
#X connect 26 0 25 0;
#X connect 27 0 22 0;
#X connect 28 0 36 0;
#X connect 30 0 24 0;
#X connect 31 0 3 1;
#X connect 32 0 31 1;
#X connect 33 0 31 2;
#X connect 34 0 31 3;
#X connect 37 0 38 0;
#X connect 38 0 36 0;
#X connect 39 0 3 0;
#X connect 40 0 39 1;
#X connect 41 0 40 0;
#X connect 42 0 4 0;
#X connect 42 1 5 0;
